<svg viewBox="0 0 1024 1067.908" xmlns="http://www.w3.org/2000/svg"><path d="M0 65.855h1001.74v746.63H0zm934.957 66.782H66.783V745.7h868.174zm-93.94 850.366H160.723V916.22h680.292zM534.26 949.61H467.48V779.54h66.783zm18.255-713.682h118.428c65.375.076 118.352 53.053 118.428 118.42v170.08c-.075 65.376-53.052 118.353-118.42 118.43H552.515zm118.428 340.146c28.513-.025 51.62-23.133 51.645-51.643V354.356c-.025-28.513-23.133-51.62-51.643-51.645h-51.648v273.363zm-340.146 66.782H203.465v-66.783H330.975c28.523 0 51.646-23.122 51.646-51.646 0-28.46-23.02-51.544-51.457-51.645h-.544V406h.49c28.455-.09 51.49-23.178 51.49-51.646 0-28.523-23.123-51.645-51.646-51.645H203.467v-66.784H330.8c65.437.088 118.45 53.156 118.45 118.606 0 32.67-13.208 62.254-34.576 83.705l-1.332 1.332c22.145 21.534 35.884 51.614 35.884 84.902 0 65.38-53.002 118.383-118.383 118.383h-.047.002z"/></svg>